<svg width="778" height="668" viewBox="0 0 778 668" fill="none" xmlns="http://www.w3.org/2000/svg">
<circle cx="69.3708" cy="220.893" r="5.9518" transform="rotate(-8.81526 69.3708 220.893)" fill="#DCE2EE"/>
<circle cx="80.3151" cy="291.471" r="5.9518" transform="rotate(-8.81526 80.3151 291.471)" fill="#DCE2EE"/>
<circle cx="91.2614" cy="362.051" r="5.9518" transform="rotate(-8.81526 91.2614 362.051)" fill="#DCE2EE"/>
<circle cx="102.208" cy="432.63" r="5.9518" transform="rotate(-8.81526 102.208 432.63)" fill="#DCE2EE"/>
<circle cx="113.153" cy="503.206" r="5.9518" transform="rotate(-8.81526 113.153 503.206)" fill="#DCE2EE"/>
<circle cx="124.098" cy="573.784" r="5.9518" transform="rotate(-8.81526 124.098 573.784)" fill="#DCE2EE"/>
<circle cx="135.043" cy="644.362" r="5.9518" transform="rotate(-8.81526 135.043 644.362)" fill="#DCE2EE"/>
<circle cx="139.949" cy="209.948" r="5.9518" transform="rotate(-8.81526 139.949 209.948)" fill="#DCE2EE"/>
<circle cx="150.895" cy="280.526" r="5.9518" transform="rotate(-8.81526 150.895 280.526)" fill="#DCE2EE"/>
<circle cx="161.84" cy="351.104" r="5.9518" transform="rotate(-8.81526 161.84 351.104)" fill="#DCE2EE"/>
<circle cx="172.786" cy="421.682" r="5.9518" transform="rotate(-8.81526 172.786 421.682)" fill="#DCE2EE"/>
<circle cx="183.73" cy="492.262" r="5.9518" transform="rotate(-8.81526 183.73 492.262)" fill="#DCE2EE"/>
<circle cx="194.675" cy="562.839" r="5.9518" transform="rotate(-8.81526 194.675 562.839)" fill="#DCE2EE"/>
<circle cx="205.621" cy="633.417" r="5.9518" transform="rotate(-8.81526 205.621 633.417)" fill="#DCE2EE"/>
<circle cx="210.528" cy="199.005" r="5.9518" transform="rotate(-8.81526 210.528 199.005)" fill="#DCE2EE"/>
<circle cx="221.473" cy="269.583" r="5.9518" transform="rotate(-8.81526 221.473 269.583)" fill="#DCE2EE"/>
<circle cx="232.418" cy="340.159" r="5.9518" transform="rotate(-8.81526 232.418 340.159)" fill="#DCE2EE"/>
<circle cx="243.363" cy="410.739" r="5.9518" transform="rotate(-8.81526 243.363 410.739)" fill="#DCE2EE"/>
<circle cx="254.308" cy="481.315" r="5.9518" transform="rotate(-8.81526 254.308 481.315)" fill="#DCE2EE"/>
<circle cx="265.253" cy="551.893" r="5.9518" transform="rotate(-8.81526 265.253 551.893)" fill="#DCE2EE"/>
<circle cx="276.198" cy="622.471" r="5.9518" transform="rotate(-8.81526 276.198 622.471)" fill="#DCE2EE"/>
<circle cx="281.106" cy="188.059" r="5.9518" transform="rotate(-8.81526 281.106 188.059)" fill="#DCE2EE"/>
<circle cx="292.049" cy="258.635" r="5.9518" transform="rotate(-8.81526 292.049 258.635)" fill="#DCE2EE"/>
<circle cx="302.996" cy="329.215" r="5.9518" transform="rotate(-8.81526 302.996 329.215)" fill="#DCE2EE"/>
<circle cx="313.941" cy="399.792" r="5.9518" transform="rotate(-8.81526 313.941 399.792)" fill="#DCE2EE"/>
<circle cx="324.885" cy="470.372" r="5.9518" transform="rotate(-8.81526 324.885 470.372)" fill="#DCE2EE"/>
<circle cx="335.831" cy="540.948" r="5.9518" transform="rotate(-8.81526 335.831 540.948)" fill="#DCE2EE"/>
<circle cx="346.775" cy="611.526" r="5.9518" transform="rotate(-8.81526 346.775 611.526)" fill="#DCE2EE"/>
<circle cx="351.683" cy="177.114" r="5.9518" transform="rotate(-8.81526 351.683 177.114)" fill="#DCE2EE"/>
<circle cx="362.629" cy="247.69" r="5.9518" transform="rotate(-8.81526 362.629 247.69)" fill="#DCE2EE"/>
<circle cx="373.573" cy="318.268" r="5.9518" transform="rotate(-8.81526 373.573 318.268)" fill="#DCE2EE"/>
<circle cx="384.518" cy="388.848" r="5.9518" transform="rotate(-8.81526 384.518 388.848)" fill="#DCE2EE"/>
<circle cx="395.464" cy="459.424" r="5.9518" transform="rotate(-8.81526 395.464 459.424)" fill="#DCE2EE"/>
<circle cx="406.408" cy="530.003" r="5.9518" transform="rotate(-8.81526 406.408 530.003)" fill="#DCE2EE"/>
<circle cx="417.354" cy="600.581" r="5.9518" transform="rotate(-8.81526 417.354 600.581)" fill="#DCE2EE"/>
<circle cx="422.26" cy="166.169" r="5.9518" transform="rotate(-8.81526 422.26 166.169)" fill="#DCE2EE"/>
<circle cx="433.206" cy="236.747" r="5.9518" transform="rotate(-8.81526 433.206 236.747)" fill="#DCE2EE"/>
<circle cx="444.152" cy="307.325" r="5.9518" transform="rotate(-8.81526 444.152 307.325)" fill="#DCE2EE"/>
<circle cx="455.096" cy="377.901" r="5.9518" transform="rotate(-8.81526 455.096 377.901)" fill="#DCE2EE"/>
<circle cx="466.041" cy="448.479" r="5.9518" transform="rotate(-8.81526 466.041 448.479)" fill="#DCE2EE"/>
<circle cx="476.988" cy="519.059" r="5.9518" transform="rotate(-8.81526 476.988 519.059)" fill="#DCE2EE"/>
<circle cx="487.932" cy="589.635" r="5.9518" transform="rotate(-8.81526 487.932 589.635)" fill="#DCE2EE"/>
<circle cx="492.839" cy="155.223" r="5.9518" transform="rotate(-8.81526 492.839 155.223)" fill="#DCE2EE"/>
<circle cx="503.783" cy="225.801" r="5.9518" transform="rotate(-8.81526 503.783 225.801)" fill="#DCE2EE"/>
<circle cx="514.728" cy="296.38" r="5.9518" transform="rotate(-8.81526 514.728 296.38)" fill="#DCE2EE"/>
<circle cx="525.676" cy="366.956" r="5.9518" transform="rotate(-8.81526 525.676 366.956)" fill="#DCE2EE"/>
<circle cx="536.62" cy="437.534" r="5.9518" transform="rotate(-8.81526 536.62 437.534)" fill="#DCE2EE"/>
<circle cx="547.566" cy="508.112" r="5.9518" transform="rotate(-8.81526 547.566 508.112)" fill="#DCE2EE"/>
<circle cx="558.51" cy="578.69" r="5.9518" transform="rotate(-8.81526 558.51 578.69)" fill="#DCE2EE"/>
<circle cx="563.416" cy="144.276" r="5.9518" transform="rotate(-8.81526 563.416 144.276)" fill="#DCE2EE"/>
<circle cx="574.362" cy="214.856" r="5.9518" transform="rotate(-8.81526 574.362 214.856)" fill="#DCE2EE"/>
<circle cx="585.306" cy="285.434" r="5.9518" transform="rotate(-8.81526 585.306 285.434)" fill="#DCE2EE"/>
<circle cx="596.251" cy="356.012" r="5.9518" transform="rotate(-8.81526 596.251 356.012)" fill="#DCE2EE"/>
<circle cx="607.197" cy="426.589" r="5.9518" transform="rotate(-8.81526 607.197 426.589)" fill="#DCE2EE"/>
<circle cx="618.143" cy="497.167" r="5.9518" transform="rotate(-8.81526 618.143 497.167)" fill="#DCE2EE"/>
<circle cx="629.089" cy="567.745" r="5.9518" transform="rotate(-8.81526 629.089 567.745)" fill="#DCE2EE"/>
<circle cx="633.994" cy="133.331" r="5.9518" transform="rotate(-8.81526 633.994 133.331)" fill="#DCE2EE"/>
<circle cx="644.938" cy="203.909" r="5.9518" transform="rotate(-8.81526 644.938 203.909)" fill="#DCE2EE"/>
<circle cx="655.883" cy="274.489" r="5.9518" transform="rotate(-8.81526 655.883 274.489)" fill="#DCE2EE"/>
<circle cx="666.832" cy="345.065" r="5.9518" transform="rotate(-8.81526 666.832 345.065)" fill="#DCE2EE"/>
<circle cx="677.776" cy="415.645" r="5.9518" transform="rotate(-8.81526 677.776 415.645)" fill="#DCE2EE"/>
<circle cx="688.721" cy="486.221" r="5.9518" transform="rotate(-8.81526 688.721 486.221)" fill="#DCE2EE"/>
<circle cx="699.666" cy="556.799" r="5.9518" transform="rotate(-8.81526 699.666 556.799)" fill="#DCE2EE"/>
<circle cx="704.571" cy="122.387" r="5.9518" transform="rotate(-8.81526 704.571 122.387)" fill="#DCE2EE"/>
<circle cx="715.516" cy="192.964" r="5.9518" transform="rotate(-8.81526 715.516 192.964)" fill="#DCE2EE"/>
<circle cx="726.463" cy="263.544" r="5.9518" transform="rotate(-8.81526 726.463 263.544)" fill="#DCE2EE"/>
<circle cx="737.409" cy="334.122" r="5.9518" transform="rotate(-8.81526 737.409 334.122)" fill="#DCE2EE"/>
<circle cx="748.352" cy="404.698" r="5.9518" transform="rotate(-8.81526 748.352 404.698)" fill="#DCE2EE"/>
<circle cx="759.297" cy="475.276" r="5.9518" transform="rotate(-8.81526 759.297 475.276)" fill="#DCE2EE"/>
<circle cx="770.247" cy="545.854" r="5.9518" transform="rotate(-8.81526 770.247 545.854)" fill="#DCE2EE"/>
<circle cx="726.799" cy="656.019" r="11.9036" fill="#BCE01A"/>
<circle cx="15.0568" cy="536.984" r="14.2843" fill="#16A3B9"/>
<circle cx="713.24" cy="12.7005" r="11.9036" fill="#FF7223"/>
</svg>
